<svg width="48" height="48" viewBox="0 0 48 48" fill="none" xmlns="http://www.w3.org/2000/svg">
<g clip-path="url(#clip0_2_501)">
<path d="M41.2675 31.5035V15.8368C41.2668 15.15 41.0854 14.4754 40.7417 13.8807C40.398 13.2861 39.9039 12.7923 39.3091 12.4489L25.6008 4.61555C25.0054 4.27179 24.33 4.09082 23.6425 4.09082C22.9549 4.09082 22.2795 4.27179 21.6841 4.61555L7.97579 12.4489C7.38097 12.7923 6.88692 13.2861 6.54319 13.8807C6.19947 14.4754 6.01816 15.15 6.01746 15.8368V31.5035C6.01816 32.1903 6.19947 32.8649 6.54319 33.4595C6.88692 34.0542 7.38097 34.548 7.97579 34.8914L21.6841 42.7247C22.2795 43.0685 22.9549 43.2495 23.6425 43.2495C24.33 43.2495 25.0054 43.0685 25.6008 42.7247L39.3091 34.8914C39.9039 34.548 40.398 34.0542 40.7417 33.4595C41.0854 32.8649 41.2668 32.1903 41.2675 31.5035Z" stroke="rgb(14 165 233)" stroke-width="1.95833" stroke-linecap="round" stroke-linejoin="round"/>
<path d="M14.83 8.41479L23.6425 13.5065L32.455 8.41479" stroke="rgb(14 165 233)" stroke-width="1.95833" stroke-linecap="round" stroke-linejoin="round"/>
<path d="M14.83 38.9256V28.7618L6.01746 23.6702" stroke="rgb(14 165 233)" stroke-width="1.95833" stroke-linecap="round" stroke-linejoin="round"/>
<path d="M41.2675 23.6702L32.455 28.7618V38.9256" stroke="rgb(14 165 233)" stroke-width="1.95833" stroke-linecap="round" stroke-linejoin="round"/>
<path d="M6.5462 13.8L23.6425 23.6896L40.7387 13.8" stroke="rgb(14 165 233)" stroke-width="1.95833" stroke-linecap="round" stroke-linejoin="round"/>
<path d="M23.6425 43.4102V23.6702" stroke="rgb(14 165 233)" stroke-width="1.95833" stroke-linecap="round" stroke-linejoin="round"/>
</g>
<defs>
<clipPath id="clip0_2_501">
<rect width="47" height="47" fill="white" transform="translate(0.142456 0.170166)"/>
</clipPath>
</defs>
</svg>
