<svg xmlns="http://www.w3.org/2000/svg" version="1.1" xmlns:xlink="http://www.w3.org/1999/xlink" xmlns:svgjs="http://svgjs.dev/svgjs" width="1440" height="560" preserveAspectRatio="none" viewBox="0 0 1440 560">
    <g mask="url(&quot;#SvgjsMask1008&quot;)" fill="none">
        <rect width="1440" height="560" x="0" y="0" fill="#0e2a47"></rect>
        <path d="M43.52 -3.5L108.47 34L108.47 109L43.52 146.5L-21.43 109L-21.43 34zM43.52 446.5L108.47 484L108.47 559L43.52 596.5L-21.43 559L-21.43 484zM173.43 221.5L238.38 259L238.38 334L173.43 371.5L108.47 334L108.47 259zM238.38 334L303.33 371.5L303.33 446.5L238.38 484L173.43 446.5L173.43 371.5zM238.38 559L303.33 596.5L303.33 671.5L238.38 709L173.43 671.5L173.43 596.5zM303.33 -3.5L368.29 34L368.29 109L303.33 146.5L238.38 109L238.38 34zM368.29 109L433.24 146.5L433.24 221.5L368.29 259L303.33 221.5L303.33 146.5zM433.24 -3.5L498.2 34L498.2 109L433.24 146.5L368.29 109L368.29 34zM628.1 109L693.06 146.5L693.06 221.5L628.1 259L563.15 221.5L563.15 146.5zM563.15 221.5L628.1 259L628.1 334L563.15 371.5L498.2 334L498.2 259zM758.01 109L822.97 146.5L822.97 221.5L758.01 259L693.06 221.5L693.06 146.5zM693.06 221.5L758.01 259L758.01 334L693.06 371.5L628.1 334L628.1 259zM758.01 334L822.97 371.5L822.97 446.5L758.01 484L693.06 446.5L693.06 371.5zM693.06 446.5L758.01 484L758.01 559L693.06 596.5L628.1 559L628.1 484zM887.92 109L952.87 146.5L952.87 221.5L887.92 259L822.96 221.5L822.96 146.5zM887.92 334L952.87 371.5L952.87 446.5L887.92 484L822.96 446.5L822.96 371.5zM822.96 446.5L887.92 484L887.92 559L822.96 596.5L758.01 559L758.01 484zM952.87 -3.5L1017.83 34L1017.83 109L952.87 146.5L887.92 109L887.92 34zM1017.83 109L1082.78 146.5L1082.78 221.5L1017.83 259L952.87 221.5L952.87 146.5zM1017.83 334L1082.78 371.5L1082.78 446.5L1017.83 484L952.87 446.5L952.87 371.5zM952.87 446.5L1017.83 484L1017.83 559L952.87 596.5L887.92 559L887.92 484zM1017.83 559L1082.78 596.5L1082.78 671.5L1017.83 709L952.87 671.5L952.87 596.5zM1082.78 -3.5L1147.73 34L1147.73 109L1082.78 146.5L1017.83 109L1017.83 34zM1147.73 334L1212.69 371.5L1212.69 446.5L1147.73 484L1082.78 446.5L1082.78 371.5zM1082.78 446.5L1147.73 484L1147.73 559L1082.78 596.5L1017.83 559L1017.83 484zM1147.73 559L1212.69 596.5L1212.69 671.5L1147.73 709L1082.78 671.5L1082.78 596.5zM1212.69 -3.5L1277.64 34L1277.64 109L1212.69 146.5L1147.73 109L1147.73 34zM1277.64 334L1342.59 371.5L1342.59 446.5L1277.64 484L1212.69 446.5L1212.69 371.5zM1212.69 446.5L1277.64 484L1277.64 559L1212.69 596.5L1147.73 559L1147.73 484zM1277.64 559L1342.59 596.5L1342.59 671.5L1277.64 709L1212.69 671.5L1212.69 596.5zM1342.6 -3.5L1407.55 34L1407.55 109L1342.6 146.5L1277.64 109L1277.64 34zM1407.55 334L1472.5 371.5L1472.5 446.5L1407.55 484L1342.6 446.5L1342.6 371.5zM1342.6 446.5L1407.55 484L1407.55 559L1342.6 596.5L1277.64 559L1277.64 484zM1407.55 559L1472.5 596.5L1472.5 671.5L1407.55 709L1342.6 671.5L1342.6 596.5zM1472.5 -3.5L1537.46 34L1537.46 109L1472.5 146.5L1407.55 109L1407.55 34zM1537.46 109L1602.41 146.5L1602.41 221.5L1537.46 259L1472.5 221.5L1472.5 146.5zM1472.5 221.5L1537.46 259L1537.46 334L1472.5 371.5L1407.55 334L1407.55 259zM1537.46 334L1602.41 371.5L1602.41 446.5L1537.46 484L1472.5 446.5L1472.5 371.5zM1472.5 446.5L1537.46 484L1537.46 559L1472.5 596.5L1407.55 559L1407.55 484zM1537.46 559L1602.41 596.5L1602.41 671.5L1537.46 709L1472.5 671.5L1472.5 596.5z" stroke="#03305d" stroke-width="2"></path>
        <path d="M36.02 -3.5 a7.5 7.5 0 1 0 15 0 a7.5 7.5 0 1 0 -15 0zM100.97 34 a7.5 7.5 0 1 0 15 0 a7.5 7.5 0 1 0 -15 0zM100.97 109 a7.5 7.5 0 1 0 15 0 a7.5 7.5 0 1 0 -15 0zM36.02 146.5 a7.5 7.5 0 1 0 15 0 a7.5 7.5 0 1 0 -15 0zM-28.93 109 a7.5 7.5 0 1 0 15 0 a7.5 7.5 0 1 0 -15 0zM-28.93 34 a7.5 7.5 0 1 0 15 0 a7.5 7.5 0 1 0 -15 0zM36.02 446.5 a7.5 7.5 0 1 0 15 0 a7.5 7.5 0 1 0 -15 0zM100.97 484 a7.5 7.5 0 1 0 15 0 a7.5 7.5 0 1 0 -15 0zM100.97 559 a7.5 7.5 0 1 0 15 0 a7.5 7.5 0 1 0 -15 0zM36.02 596.5 a7.5 7.5 0 1 0 15 0 a7.5 7.5 0 1 0 -15 0zM-28.93 559 a7.5 7.5 0 1 0 15 0 a7.5 7.5 0 1 0 -15 0zM-28.93 484 a7.5 7.5 0 1 0 15 0 a7.5 7.5 0 1 0 -15 0zM165.93 221.5 a7.5 7.5 0 1 0 15 0 a7.5 7.5 0 1 0 -15 0zM230.88 259 a7.5 7.5 0 1 0 15 0 a7.5 7.5 0 1 0 -15 0zM230.88 334 a7.5 7.5 0 1 0 15 0 a7.5 7.5 0 1 0 -15 0zM165.93 371.5 a7.5 7.5 0 1 0 15 0 a7.5 7.5 0 1 0 -15 0zM100.97 334 a7.5 7.5 0 1 0 15 0 a7.5 7.5 0 1 0 -15 0zM100.97 259 a7.5 7.5 0 1 0 15 0 a7.5 7.5 0 1 0 -15 0zM295.83 371.5 a7.5 7.5 0 1 0 15 0 a7.5 7.5 0 1 0 -15 0zM295.83 446.5 a7.5 7.5 0 1 0 15 0 a7.5 7.5 0 1 0 -15 0zM230.88 484 a7.5 7.5 0 1 0 15 0 a7.5 7.5 0 1 0 -15 0zM165.93 446.5 a7.5 7.5 0 1 0 15 0 a7.5 7.5 0 1 0 -15 0zM230.88 559 a7.5 7.5 0 1 0 15 0 a7.5 7.5 0 1 0 -15 0zM295.83 596.5 a7.5 7.5 0 1 0 15 0 a7.5 7.5 0 1 0 -15 0zM295.83 671.5 a7.5 7.5 0 1 0 15 0 a7.5 7.5 0 1 0 -15 0zM230.88 709 a7.5 7.5 0 1 0 15 0 a7.5 7.5 0 1 0 -15 0zM165.93 671.5 a7.5 7.5 0 1 0 15 0 a7.5 7.5 0 1 0 -15 0zM165.93 596.5 a7.5 7.5 0 1 0 15 0 a7.5 7.5 0 1 0 -15 0zM295.83 -3.5 a7.5 7.5 0 1 0 15 0 a7.5 7.5 0 1 0 -15 0zM360.79 34 a7.5 7.5 0 1 0 15 0 a7.5 7.5 0 1 0 -15 0zM360.79 109 a7.5 7.5 0 1 0 15 0 a7.5 7.5 0 1 0 -15 0zM295.83 146.5 a7.5 7.5 0 1 0 15 0 a7.5 7.5 0 1 0 -15 0zM230.88 109 a7.5 7.5 0 1 0 15 0 a7.5 7.5 0 1 0 -15 0zM230.88 34 a7.5 7.5 0 1 0 15 0 a7.5 7.5 0 1 0 -15 0zM425.74 146.5 a7.5 7.5 0 1 0 15 0 a7.5 7.5 0 1 0 -15 0zM425.74 221.5 a7.5 7.5 0 1 0 15 0 a7.5 7.5 0 1 0 -15 0zM360.79 259 a7.5 7.5 0 1 0 15 0 a7.5 7.5 0 1 0 -15 0zM295.83 221.5 a7.5 7.5 0 1 0 15 0 a7.5 7.5 0 1 0 -15 0zM425.74 -3.5 a7.5 7.5 0 1 0 15 0 a7.5 7.5 0 1 0 -15 0zM490.7 34 a7.5 7.5 0 1 0 15 0 a7.5 7.5 0 1 0 -15 0zM490.7 109 a7.5 7.5 0 1 0 15 0 a7.5 7.5 0 1 0 -15 0zM620.6 109 a7.5 7.5 0 1 0 15 0 a7.5 7.5 0 1 0 -15 0zM685.56 146.5 a7.5 7.5 0 1 0 15 0 a7.5 7.5 0 1 0 -15 0zM685.56 221.5 a7.5 7.5 0 1 0 15 0 a7.5 7.5 0 1 0 -15 0zM620.6 259 a7.5 7.5 0 1 0 15 0 a7.5 7.5 0 1 0 -15 0zM555.65 221.5 a7.5 7.5 0 1 0 15 0 a7.5 7.5 0 1 0 -15 0zM555.65 146.5 a7.5 7.5 0 1 0 15 0 a7.5 7.5 0 1 0 -15 0zM620.6 334 a7.5 7.5 0 1 0 15 0 a7.5 7.5 0 1 0 -15 0zM555.65 371.5 a7.5 7.5 0 1 0 15 0 a7.5 7.5 0 1 0 -15 0zM490.7 334 a7.5 7.5 0 1 0 15 0 a7.5 7.5 0 1 0 -15 0zM490.7 259 a7.5 7.5 0 1 0 15 0 a7.5 7.5 0 1 0 -15 0zM750.51 109 a7.5 7.5 0 1 0 15 0 a7.5 7.5 0 1 0 -15 0zM815.47 146.5 a7.5 7.5 0 1 0 15 0 a7.5 7.5 0 1 0 -15 0zM815.47 221.5 a7.5 7.5 0 1 0 15 0 a7.5 7.5 0 1 0 -15 0zM750.51 259 a7.5 7.5 0 1 0 15 0 a7.5 7.5 0 1 0 -15 0zM750.51 334 a7.5 7.5 0 1 0 15 0 a7.5 7.5 0 1 0 -15 0zM685.56 371.5 a7.5 7.5 0 1 0 15 0 a7.5 7.5 0 1 0 -15 0zM815.47 371.5 a7.5 7.5 0 1 0 15 0 a7.5 7.5 0 1 0 -15 0zM815.47 446.5 a7.5 7.5 0 1 0 15 0 a7.5 7.5 0 1 0 -15 0zM750.51 484 a7.5 7.5 0 1 0 15 0 a7.5 7.5 0 1 0 -15 0zM685.56 446.5 a7.5 7.5 0 1 0 15 0 a7.5 7.5 0 1 0 -15 0zM750.51 559 a7.5 7.5 0 1 0 15 0 a7.5 7.5 0 1 0 -15 0zM685.56 596.5 a7.5 7.5 0 1 0 15 0 a7.5 7.5 0 1 0 -15 0zM620.6 559 a7.5 7.5 0 1 0 15 0 a7.5 7.5 0 1 0 -15 0zM620.6 484 a7.5 7.5 0 1 0 15 0 a7.5 7.5 0 1 0 -15 0zM880.42 109 a7.5 7.5 0 1 0 15 0 a7.5 7.5 0 1 0 -15 0zM945.37 146.5 a7.5 7.5 0 1 0 15 0 a7.5 7.5 0 1 0 -15 0zM945.37 221.5 a7.5 7.5 0 1 0 15 0 a7.5 7.5 0 1 0 -15 0zM880.42 259 a7.5 7.5 0 1 0 15 0 a7.5 7.5 0 1 0 -15 0zM815.46 221.5 a7.5 7.5 0 1 0 15 0 a7.5 7.5 0 1 0 -15 0zM815.46 146.5 a7.5 7.5 0 1 0 15 0 a7.5 7.5 0 1 0 -15 0zM880.42 334 a7.5 7.5 0 1 0 15 0 a7.5 7.5 0 1 0 -15 0zM945.37 371.5 a7.5 7.5 0 1 0 15 0 a7.5 7.5 0 1 0 -15 0zM945.37 446.5 a7.5 7.5 0 1 0 15 0 a7.5 7.5 0 1 0 -15 0zM880.42 484 a7.5 7.5 0 1 0 15 0 a7.5 7.5 0 1 0 -15 0zM815.46 446.5 a7.5 7.5 0 1 0 15 0 a7.5 7.5 0 1 0 -15 0zM815.46 371.5 a7.5 7.5 0 1 0 15 0 a7.5 7.5 0 1 0 -15 0zM880.42 559 a7.5 7.5 0 1 0 15 0 a7.5 7.5 0 1 0 -15 0zM815.46 596.5 a7.5 7.5 0 1 0 15 0 a7.5 7.5 0 1 0 -15 0zM945.37 -3.5 a7.5 7.5 0 1 0 15 0 a7.5 7.5 0 1 0 -15 0zM1010.33 34 a7.5 7.5 0 1 0 15 0 a7.5 7.5 0 1 0 -15 0zM1010.33 109 a7.5 7.5 0 1 0 15 0 a7.5 7.5 0 1 0 -15 0zM880.42 34 a7.5 7.5 0 1 0 15 0 a7.5 7.5 0 1 0 -15 0zM1075.28 146.5 a7.5 7.5 0 1 0 15 0 a7.5 7.5 0 1 0 -15 0zM1075.28 221.5 a7.5 7.5 0 1 0 15 0 a7.5 7.5 0 1 0 -15 0zM1010.33 259 a7.5 7.5 0 1 0 15 0 a7.5 7.5 0 1 0 -15 0zM1010.33 334 a7.5 7.5 0 1 0 15 0 a7.5 7.5 0 1 0 -15 0zM1075.28 371.5 a7.5 7.5 0 1 0 15 0 a7.5 7.5 0 1 0 -15 0zM1075.28 446.5 a7.5 7.5 0 1 0 15 0 a7.5 7.5 0 1 0 -15 0zM1010.33 484 a7.5 7.5 0 1 0 15 0 a7.5 7.5 0 1 0 -15 0zM1010.33 559 a7.5 7.5 0 1 0 15 0 a7.5 7.5 0 1 0 -15 0zM945.37 596.5 a7.5 7.5 0 1 0 15 0 a7.5 7.5 0 1 0 -15 0zM1075.28 596.5 a7.5 7.5 0 1 0 15 0 a7.5 7.5 0 1 0 -15 0zM1075.28 671.5 a7.5 7.5 0 1 0 15 0 a7.5 7.5 0 1 0 -15 0zM1010.33 709 a7.5 7.5 0 1 0 15 0 a7.5 7.5 0 1 0 -15 0zM945.37 671.5 a7.5 7.5 0 1 0 15 0 a7.5 7.5 0 1 0 -15 0zM1075.28 -3.5 a7.5 7.5 0 1 0 15 0 a7.5 7.5 0 1 0 -15 0zM1140.23 34 a7.5 7.5 0 1 0 15 0 a7.5 7.5 0 1 0 -15 0zM1140.23 109 a7.5 7.5 0 1 0 15 0 a7.5 7.5 0 1 0 -15 0zM1140.23 334 a7.5 7.5 0 1 0 15 0 a7.5 7.5 0 1 0 -15 0zM1205.19 371.5 a7.5 7.5 0 1 0 15 0 a7.5 7.5 0 1 0 -15 0zM1205.19 446.5 a7.5 7.5 0 1 0 15 0 a7.5 7.5 0 1 0 -15 0zM1140.23 484 a7.5 7.5 0 1 0 15 0 a7.5 7.5 0 1 0 -15 0zM1140.23 559 a7.5 7.5 0 1 0 15 0 a7.5 7.5 0 1 0 -15 0zM1205.19 596.5 a7.5 7.5 0 1 0 15 0 a7.5 7.5 0 1 0 -15 0zM1205.19 671.5 a7.5 7.5 0 1 0 15 0 a7.5 7.5 0 1 0 -15 0zM1140.23 709 a7.5 7.5 0 1 0 15 0 a7.5 7.5 0 1 0 -15 0zM1205.19 -3.5 a7.5 7.5 0 1 0 15 0 a7.5 7.5 0 1 0 -15 0zM1270.14 34 a7.5 7.5 0 1 0 15 0 a7.5 7.5 0 1 0 -15 0zM1270.14 109 a7.5 7.5 0 1 0 15 0 a7.5 7.5 0 1 0 -15 0zM1205.19 146.5 a7.5 7.5 0 1 0 15 0 a7.5 7.5 0 1 0 -15 0zM1270.14 334 a7.5 7.5 0 1 0 15 0 a7.5 7.5 0 1 0 -15 0zM1335.09 371.5 a7.5 7.5 0 1 0 15 0 a7.5 7.5 0 1 0 -15 0zM1335.09 446.5 a7.5 7.5 0 1 0 15 0 a7.5 7.5 0 1 0 -15 0zM1270.14 484 a7.5 7.5 0 1 0 15 0 a7.5 7.5 0 1 0 -15 0zM1270.14 559 a7.5 7.5 0 1 0 15 0 a7.5 7.5 0 1 0 -15 0zM1335.09 596.5 a7.5 7.5 0 1 0 15 0 a7.5 7.5 0 1 0 -15 0zM1335.09 671.5 a7.5 7.5 0 1 0 15 0 a7.5 7.5 0 1 0 -15 0zM1270.14 709 a7.5 7.5 0 1 0 15 0 a7.5 7.5 0 1 0 -15 0zM1335.1 -3.5 a7.5 7.5 0 1 0 15 0 a7.5 7.5 0 1 0 -15 0zM1400.05 34 a7.5 7.5 0 1 0 15 0 a7.5 7.5 0 1 0 -15 0zM1400.05 109 a7.5 7.5 0 1 0 15 0 a7.5 7.5 0 1 0 -15 0zM1335.1 146.5 a7.5 7.5 0 1 0 15 0 a7.5 7.5 0 1 0 -15 0zM1400.05 334 a7.5 7.5 0 1 0 15 0 a7.5 7.5 0 1 0 -15 0zM1465 371.5 a7.5 7.5 0 1 0 15 0 a7.5 7.5 0 1 0 -15 0zM1465 446.5 a7.5 7.5 0 1 0 15 0 a7.5 7.5 0 1 0 -15 0zM1400.05 484 a7.5 7.5 0 1 0 15 0 a7.5 7.5 0 1 0 -15 0zM1335.1 446.5 a7.5 7.5 0 1 0 15 0 a7.5 7.5 0 1 0 -15 0zM1335.1 371.5 a7.5 7.5 0 1 0 15 0 a7.5 7.5 0 1 0 -15 0zM1400.05 559 a7.5 7.5 0 1 0 15 0 a7.5 7.5 0 1 0 -15 0zM1335.1 596.5 a7.5 7.5 0 1 0 15 0 a7.5 7.5 0 1 0 -15 0zM1465 596.5 a7.5 7.5 0 1 0 15 0 a7.5 7.5 0 1 0 -15 0zM1465 671.5 a7.5 7.5 0 1 0 15 0 a7.5 7.5 0 1 0 -15 0zM1400.05 709 a7.5 7.5 0 1 0 15 0 a7.5 7.5 0 1 0 -15 0zM1335.1 671.5 a7.5 7.5 0 1 0 15 0 a7.5 7.5 0 1 0 -15 0zM1465 -3.5 a7.5 7.5 0 1 0 15 0 a7.5 7.5 0 1 0 -15 0zM1529.96 34 a7.5 7.5 0 1 0 15 0 a7.5 7.5 0 1 0 -15 0zM1529.96 109 a7.5 7.5 0 1 0 15 0 a7.5 7.5 0 1 0 -15 0zM1465 146.5 a7.5 7.5 0 1 0 15 0 a7.5 7.5 0 1 0 -15 0zM1594.91 146.5 a7.5 7.5 0 1 0 15 0 a7.5 7.5 0 1 0 -15 0zM1594.91 221.5 a7.5 7.5 0 1 0 15 0 a7.5 7.5 0 1 0 -15 0zM1529.96 259 a7.5 7.5 0 1 0 15 0 a7.5 7.5 0 1 0 -15 0zM1465 221.5 a7.5 7.5 0 1 0 15 0 a7.5 7.5 0 1 0 -15 0zM1529.96 334 a7.5 7.5 0 1 0 15 0 a7.5 7.5 0 1 0 -15 0zM1400.05 259 a7.5 7.5 0 1 0 15 0 a7.5 7.5 0 1 0 -15 0zM1594.91 371.5 a7.5 7.5 0 1 0 15 0 a7.5 7.5 0 1 0 -15 0zM1594.91 446.5 a7.5 7.5 0 1 0 15 0 a7.5 7.5 0 1 0 -15 0zM1529.96 484 a7.5 7.5 0 1 0 15 0 a7.5 7.5 0 1 0 -15 0zM1529.96 559 a7.5 7.5 0 1 0 15 0 a7.5 7.5 0 1 0 -15 0zM1594.91 596.5 a7.5 7.5 0 1 0 15 0 a7.5 7.5 0 1 0 -15 0zM1594.91 671.5 a7.5 7.5 0 1 0 15 0 a7.5 7.5 0 1 0 -15 0zM1529.96 709 a7.5 7.5 0 1 0 15 0 a7.5 7.5 0 1 0 -15 0z" fill="#03305d"></path>
        <path d="M11.82 267.83L55.12 292.83L55.12 342.83L11.82 367.83L-31.48 342.83L-31.48 292.83zM141.73 42.83L185.03 67.83L185.03 117.83L141.73 142.83L98.43 117.83L98.43 67.83zM98.43 117.83L141.73 142.83L141.73 192.83L98.43 217.83L55.12 192.83L55.12 142.83zM141.73 342.83L185.03 367.83L185.03 417.83L141.73 442.83L98.43 417.83L98.43 367.83zM185.03 417.83L228.33 442.83L228.33 492.83L185.03 517.83L141.73 492.83L141.73 442.83zM314.94 192.83L358.24 217.83L358.24 267.83L314.94 292.83L271.63 267.83L271.63 217.83zM358.24 -32.17L401.54 -7.17L401.54 42.83L358.24 67.83L314.94 42.83L314.94 -7.17zM401.54 42.83L444.85 67.83L444.85 117.83L401.54 142.83L358.24 117.83L358.24 67.83zM401.54 492.83L444.85 517.83L444.85 567.83L401.54 592.83L358.24 567.83L358.24 517.83zM488.15 42.83L531.45 67.83L531.45 117.83L488.15 142.83L444.85 117.83L444.85 67.83zM488.15 342.83L531.45 367.83L531.45 417.83L488.15 442.83L444.85 417.83L444.85 367.83zM444.85 417.83L488.15 442.83L488.15 492.83L444.85 517.83L401.54 492.83L401.54 442.83zM531.45 267.83L574.75 292.83L574.75 342.83L531.45 367.83L488.15 342.83L488.15 292.83zM531.45 417.83L574.75 442.83L574.75 492.83L531.45 517.83L488.15 492.83L488.15 442.83zM661.36 42.83L704.66 67.83L704.66 117.83L661.36 142.83L618.06 117.83L618.06 67.83zM661.36 342.83L704.66 367.83L704.66 417.83L661.36 442.83L618.06 417.83L618.06 367.83zM618.06 417.83L661.36 442.83L661.36 492.83L618.06 517.83L574.75 492.83L574.75 442.83zM704.66 117.83L747.96 142.83L747.96 192.83L704.66 217.83L661.36 192.83L661.36 142.83zM834.57 192.83L877.87 217.83L877.87 267.83L834.57 292.83L791.27 267.83L791.27 217.83zM791.27 417.83L834.57 442.83L834.57 492.83L791.27 517.83L747.96 492.83L747.96 442.83zM877.87 -32.17L921.17 -7.17L921.17 42.83L877.87 67.83L834.57 42.83L834.57 -7.17zM921.17 192.83L964.48 217.83L964.48 267.83L921.17 292.83L877.87 267.83L877.87 217.83zM921.17 492.83L964.48 517.83L964.48 567.83L921.17 592.83L877.87 567.83L877.87 517.83zM1051.08 117.83L1094.38 142.83L1094.38 192.83L1051.08 217.83L1007.78 192.83L1007.78 142.83zM1051.08 417.83L1094.38 442.83L1094.38 492.83L1051.08 517.83L1007.78 492.83L1007.78 442.83zM1094.38 492.83L1137.68 517.83L1137.68 567.83L1094.38 592.83L1051.08 567.83L1051.08 517.83zM1180.99 342.83L1224.29 367.83L1224.29 417.83L1180.99 442.83L1137.68 417.83L1137.68 367.83zM1224.29 117.83L1267.59 142.83L1267.59 192.83L1224.29 217.83L1180.99 192.83L1180.99 142.83zM1267.59 492.83L1310.89 517.83L1310.89 567.83L1267.59 592.83L1224.29 567.83L1224.29 517.83zM1310.89 117.83L1354.2 142.83L1354.2 192.83L1310.89 217.83L1267.59 192.83L1267.59 142.83zM1354.2 192.83L1397.5 217.83L1397.5 267.83L1354.2 292.83L1310.89 267.83L1310.89 217.83zM1310.89 417.83L1354.2 442.83L1354.2 492.83L1310.89 517.83L1267.59 492.83L1267.59 442.83zM1440.8 42.83L1484.11 67.83L1484.11 117.83L1440.8 142.83L1397.5 117.83L1397.5 67.83z" stroke="rgba(6, 80, 156, 0.93)" stroke-width="2"></path>
        <path d="M6.82 267.83 a5 5 0 1 0 10 0 a5 5 0 1 0 -10 0zM50.12 292.83 a5 5 0 1 0 10 0 a5 5 0 1 0 -10 0zM50.12 342.83 a5 5 0 1 0 10 0 a5 5 0 1 0 -10 0zM6.82 367.83 a5 5 0 1 0 10 0 a5 5 0 1 0 -10 0zM-36.48 342.83 a5 5 0 1 0 10 0 a5 5 0 1 0 -10 0zM-36.48 292.83 a5 5 0 1 0 10 0 a5 5 0 1 0 -10 0zM136.73 42.83 a5 5 0 1 0 10 0 a5 5 0 1 0 -10 0zM180.03 67.83 a5 5 0 1 0 10 0 a5 5 0 1 0 -10 0zM180.03 117.83 a5 5 0 1 0 10 0 a5 5 0 1 0 -10 0zM136.73 142.83 a5 5 0 1 0 10 0 a5 5 0 1 0 -10 0zM93.43 117.83 a5 5 0 1 0 10 0 a5 5 0 1 0 -10 0zM93.43 67.83 a5 5 0 1 0 10 0 a5 5 0 1 0 -10 0zM136.73 192.83 a5 5 0 1 0 10 0 a5 5 0 1 0 -10 0zM93.43 217.83 a5 5 0 1 0 10 0 a5 5 0 1 0 -10 0zM50.12 192.83 a5 5 0 1 0 10 0 a5 5 0 1 0 -10 0zM50.12 142.83 a5 5 0 1 0 10 0 a5 5 0 1 0 -10 0zM136.73 342.83 a5 5 0 1 0 10 0 a5 5 0 1 0 -10 0zM180.03 367.83 a5 5 0 1 0 10 0 a5 5 0 1 0 -10 0zM180.03 417.83 a5 5 0 1 0 10 0 a5 5 0 1 0 -10 0zM136.73 442.83 a5 5 0 1 0 10 0 a5 5 0 1 0 -10 0zM93.43 417.83 a5 5 0 1 0 10 0 a5 5 0 1 0 -10 0zM93.43 367.83 a5 5 0 1 0 10 0 a5 5 0 1 0 -10 0zM223.33 442.83 a5 5 0 1 0 10 0 a5 5 0 1 0 -10 0zM223.33 492.83 a5 5 0 1 0 10 0 a5 5 0 1 0 -10 0zM180.03 517.83 a5 5 0 1 0 10 0 a5 5 0 1 0 -10 0zM136.73 492.83 a5 5 0 1 0 10 0 a5 5 0 1 0 -10 0zM309.94 192.83 a5 5 0 1 0 10 0 a5 5 0 1 0 -10 0zM353.24 217.83 a5 5 0 1 0 10 0 a5 5 0 1 0 -10 0zM353.24 267.83 a5 5 0 1 0 10 0 a5 5 0 1 0 -10 0zM309.94 292.83 a5 5 0 1 0 10 0 a5 5 0 1 0 -10 0zM266.63 267.83 a5 5 0 1 0 10 0 a5 5 0 1 0 -10 0zM266.63 217.83 a5 5 0 1 0 10 0 a5 5 0 1 0 -10 0zM353.24 -32.17 a5 5 0 1 0 10 0 a5 5 0 1 0 -10 0zM396.54 -7.17 a5 5 0 1 0 10 0 a5 5 0 1 0 -10 0zM396.54 42.83 a5 5 0 1 0 10 0 a5 5 0 1 0 -10 0zM353.24 67.83 a5 5 0 1 0 10 0 a5 5 0 1 0 -10 0zM309.94 42.83 a5 5 0 1 0 10 0 a5 5 0 1 0 -10 0zM309.94 -7.17 a5 5 0 1 0 10 0 a5 5 0 1 0 -10 0zM439.85 67.83 a5 5 0 1 0 10 0 a5 5 0 1 0 -10 0zM439.85 117.83 a5 5 0 1 0 10 0 a5 5 0 1 0 -10 0zM396.54 142.83 a5 5 0 1 0 10 0 a5 5 0 1 0 -10 0zM353.24 117.83 a5 5 0 1 0 10 0 a5 5 0 1 0 -10 0zM396.54 492.83 a5 5 0 1 0 10 0 a5 5 0 1 0 -10 0zM439.85 517.83 a5 5 0 1 0 10 0 a5 5 0 1 0 -10 0zM439.85 567.83 a5 5 0 1 0 10 0 a5 5 0 1 0 -10 0zM396.54 592.83 a5 5 0 1 0 10 0 a5 5 0 1 0 -10 0zM353.24 567.83 a5 5 0 1 0 10 0 a5 5 0 1 0 -10 0zM353.24 517.83 a5 5 0 1 0 10 0 a5 5 0 1 0 -10 0zM483.15 42.83 a5 5 0 1 0 10 0 a5 5 0 1 0 -10 0zM526.45 67.83 a5 5 0 1 0 10 0 a5 5 0 1 0 -10 0zM526.45 117.83 a5 5 0 1 0 10 0 a5 5 0 1 0 -10 0zM483.15 142.83 a5 5 0 1 0 10 0 a5 5 0 1 0 -10 0zM483.15 342.83 a5 5 0 1 0 10 0 a5 5 0 1 0 -10 0zM526.45 367.83 a5 5 0 1 0 10 0 a5 5 0 1 0 -10 0zM526.45 417.83 a5 5 0 1 0 10 0 a5 5 0 1 0 -10 0zM483.15 442.83 a5 5 0 1 0 10 0 a5 5 0 1 0 -10 0zM439.85 417.83 a5 5 0 1 0 10 0 a5 5 0 1 0 -10 0zM439.85 367.83 a5 5 0 1 0 10 0 a5 5 0 1 0 -10 0zM483.15 492.83 a5 5 0 1 0 10 0 a5 5 0 1 0 -10 0zM396.54 442.83 a5 5 0 1 0 10 0 a5 5 0 1 0 -10 0zM526.45 267.83 a5 5 0 1 0 10 0 a5 5 0 1 0 -10 0zM569.75 292.83 a5 5 0 1 0 10 0 a5 5 0 1 0 -10 0zM569.75 342.83 a5 5 0 1 0 10 0 a5 5 0 1 0 -10 0zM483.15 292.83 a5 5 0 1 0 10 0 a5 5 0 1 0 -10 0zM569.75 442.83 a5 5 0 1 0 10 0 a5 5 0 1 0 -10 0zM569.75 492.83 a5 5 0 1 0 10 0 a5 5 0 1 0 -10 0zM526.45 517.83 a5 5 0 1 0 10 0 a5 5 0 1 0 -10 0zM656.36 42.83 a5 5 0 1 0 10 0 a5 5 0 1 0 -10 0zM699.66 67.83 a5 5 0 1 0 10 0 a5 5 0 1 0 -10 0zM699.66 117.83 a5 5 0 1 0 10 0 a5 5 0 1 0 -10 0zM656.36 142.83 a5 5 0 1 0 10 0 a5 5 0 1 0 -10 0zM613.06 117.83 a5 5 0 1 0 10 0 a5 5 0 1 0 -10 0zM613.06 67.83 a5 5 0 1 0 10 0 a5 5 0 1 0 -10 0zM656.36 342.83 a5 5 0 1 0 10 0 a5 5 0 1 0 -10 0zM699.66 367.83 a5 5 0 1 0 10 0 a5 5 0 1 0 -10 0zM699.66 417.83 a5 5 0 1 0 10 0 a5 5 0 1 0 -10 0zM656.36 442.83 a5 5 0 1 0 10 0 a5 5 0 1 0 -10 0zM613.06 417.83 a5 5 0 1 0 10 0 a5 5 0 1 0 -10 0zM613.06 367.83 a5 5 0 1 0 10 0 a5 5 0 1 0 -10 0zM656.36 492.83 a5 5 0 1 0 10 0 a5 5 0 1 0 -10 0zM613.06 517.83 a5 5 0 1 0 10 0 a5 5 0 1 0 -10 0zM742.96 142.83 a5 5 0 1 0 10 0 a5 5 0 1 0 -10 0zM742.96 192.83 a5 5 0 1 0 10 0 a5 5 0 1 0 -10 0zM699.66 217.83 a5 5 0 1 0 10 0 a5 5 0 1 0 -10 0zM656.36 192.83 a5 5 0 1 0 10 0 a5 5 0 1 0 -10 0zM829.57 192.83 a5 5 0 1 0 10 0 a5 5 0 1 0 -10 0zM872.87 217.83 a5 5 0 1 0 10 0 a5 5 0 1 0 -10 0zM872.87 267.83 a5 5 0 1 0 10 0 a5 5 0 1 0 -10 0zM829.57 292.83 a5 5 0 1 0 10 0 a5 5 0 1 0 -10 0zM786.27 267.83 a5 5 0 1 0 10 0 a5 5 0 1 0 -10 0zM786.27 217.83 a5 5 0 1 0 10 0 a5 5 0 1 0 -10 0zM786.27 417.83 a5 5 0 1 0 10 0 a5 5 0 1 0 -10 0zM829.57 442.83 a5 5 0 1 0 10 0 a5 5 0 1 0 -10 0zM829.57 492.83 a5 5 0 1 0 10 0 a5 5 0 1 0 -10 0zM786.27 517.83 a5 5 0 1 0 10 0 a5 5 0 1 0 -10 0zM742.96 492.83 a5 5 0 1 0 10 0 a5 5 0 1 0 -10 0zM742.96 442.83 a5 5 0 1 0 10 0 a5 5 0 1 0 -10 0zM872.87 -32.17 a5 5 0 1 0 10 0 a5 5 0 1 0 -10 0zM916.17 -7.17 a5 5 0 1 0 10 0 a5 5 0 1 0 -10 0zM916.17 42.83 a5 5 0 1 0 10 0 a5 5 0 1 0 -10 0zM872.87 67.83 a5 5 0 1 0 10 0 a5 5 0 1 0 -10 0zM829.57 42.83 a5 5 0 1 0 10 0 a5 5 0 1 0 -10 0zM829.57 -7.17 a5 5 0 1 0 10 0 a5 5 0 1 0 -10 0zM916.17 192.83 a5 5 0 1 0 10 0 a5 5 0 1 0 -10 0zM959.48 217.83 a5 5 0 1 0 10 0 a5 5 0 1 0 -10 0zM959.48 267.83 a5 5 0 1 0 10 0 a5 5 0 1 0 -10 0zM916.17 292.83 a5 5 0 1 0 10 0 a5 5 0 1 0 -10 0zM916.17 492.83 a5 5 0 1 0 10 0 a5 5 0 1 0 -10 0zM959.48 517.83 a5 5 0 1 0 10 0 a5 5 0 1 0 -10 0zM959.48 567.83 a5 5 0 1 0 10 0 a5 5 0 1 0 -10 0zM916.17 592.83 a5 5 0 1 0 10 0 a5 5 0 1 0 -10 0zM872.87 567.83 a5 5 0 1 0 10 0 a5 5 0 1 0 -10 0zM872.87 517.83 a5 5 0 1 0 10 0 a5 5 0 1 0 -10 0zM1046.08 117.83 a5 5 0 1 0 10 0 a5 5 0 1 0 -10 0zM1089.38 142.83 a5 5 0 1 0 10 0 a5 5 0 1 0 -10 0zM1089.38 192.83 a5 5 0 1 0 10 0 a5 5 0 1 0 -10 0zM1046.08 217.83 a5 5 0 1 0 10 0 a5 5 0 1 0 -10 0zM1002.78 192.83 a5 5 0 1 0 10 0 a5 5 0 1 0 -10 0zM1002.78 142.83 a5 5 0 1 0 10 0 a5 5 0 1 0 -10 0zM1046.08 417.83 a5 5 0 1 0 10 0 a5 5 0 1 0 -10 0zM1089.38 442.83 a5 5 0 1 0 10 0 a5 5 0 1 0 -10 0zM1089.38 492.83 a5 5 0 1 0 10 0 a5 5 0 1 0 -10 0zM1046.08 517.83 a5 5 0 1 0 10 0 a5 5 0 1 0 -10 0zM1002.78 492.83 a5 5 0 1 0 10 0 a5 5 0 1 0 -10 0zM1002.78 442.83 a5 5 0 1 0 10 0 a5 5 0 1 0 -10 0zM1132.68 517.83 a5 5 0 1 0 10 0 a5 5 0 1 0 -10 0zM1132.68 567.83 a5 5 0 1 0 10 0 a5 5 0 1 0 -10 0zM1089.38 592.83 a5 5 0 1 0 10 0 a5 5 0 1 0 -10 0zM1046.08 567.83 a5 5 0 1 0 10 0 a5 5 0 1 0 -10 0zM1175.99 342.83 a5 5 0 1 0 10 0 a5 5 0 1 0 -10 0zM1219.29 367.83 a5 5 0 1 0 10 0 a5 5 0 1 0 -10 0zM1219.29 417.83 a5 5 0 1 0 10 0 a5 5 0 1 0 -10 0zM1175.99 442.83 a5 5 0 1 0 10 0 a5 5 0 1 0 -10 0zM1132.68 417.83 a5 5 0 1 0 10 0 a5 5 0 1 0 -10 0zM1132.68 367.83 a5 5 0 1 0 10 0 a5 5 0 1 0 -10 0zM1219.29 117.83 a5 5 0 1 0 10 0 a5 5 0 1 0 -10 0zM1262.59 142.83 a5 5 0 1 0 10 0 a5 5 0 1 0 -10 0zM1262.59 192.83 a5 5 0 1 0 10 0 a5 5 0 1 0 -10 0zM1219.29 217.83 a5 5 0 1 0 10 0 a5 5 0 1 0 -10 0zM1175.99 192.83 a5 5 0 1 0 10 0 a5 5 0 1 0 -10 0zM1175.99 142.83 a5 5 0 1 0 10 0 a5 5 0 1 0 -10 0zM1262.59 492.83 a5 5 0 1 0 10 0 a5 5 0 1 0 -10 0zM1305.89 517.83 a5 5 0 1 0 10 0 a5 5 0 1 0 -10 0zM1305.89 567.83 a5 5 0 1 0 10 0 a5 5 0 1 0 -10 0zM1262.59 592.83 a5 5 0 1 0 10 0 a5 5 0 1 0 -10 0zM1219.29 567.83 a5 5 0 1 0 10 0 a5 5 0 1 0 -10 0zM1219.29 517.83 a5 5 0 1 0 10 0 a5 5 0 1 0 -10 0zM1305.89 117.83 a5 5 0 1 0 10 0 a5 5 0 1 0 -10 0zM1349.2 142.83 a5 5 0 1 0 10 0 a5 5 0 1 0 -10 0zM1349.2 192.83 a5 5 0 1 0 10 0 a5 5 0 1 0 -10 0zM1305.89 217.83 a5 5 0 1 0 10 0 a5 5 0 1 0 -10 0zM1392.5 217.83 a5 5 0 1 0 10 0 a5 5 0 1 0 -10 0zM1392.5 267.83 a5 5 0 1 0 10 0 a5 5 0 1 0 -10 0zM1349.2 292.83 a5 5 0 1 0 10 0 a5 5 0 1 0 -10 0zM1305.89 267.83 a5 5 0 1 0 10 0 a5 5 0 1 0 -10 0zM1305.89 417.83 a5 5 0 1 0 10 0 a5 5 0 1 0 -10 0zM1349.2 442.83 a5 5 0 1 0 10 0 a5 5 0 1 0 -10 0zM1349.2 492.83 a5 5 0 1 0 10 0 a5 5 0 1 0 -10 0zM1262.59 442.83 a5 5 0 1 0 10 0 a5 5 0 1 0 -10 0zM1435.8 42.83 a5 5 0 1 0 10 0 a5 5 0 1 0 -10 0zM1479.11 67.83 a5 5 0 1 0 10 0 a5 5 0 1 0 -10 0zM1479.11 117.83 a5 5 0 1 0 10 0 a5 5 0 1 0 -10 0zM1435.8 142.83 a5 5 0 1 0 10 0 a5 5 0 1 0 -10 0zM1392.5 117.83 a5 5 0 1 0 10 0 a5 5 0 1 0 -10 0zM1392.5 67.83 a5 5 0 1 0 10 0 a5 5 0 1 0 -10 0z" fill="rgba(6, 80, 156, 0.93)"></path>
    </g>
    <defs>
        <mask id="SvgjsMask1008">
            <rect width="1440" height="560" fill="#ffffff"></rect>
        </mask>
    </defs>
</svg>