<svg width="48" height="48" viewBox="0 0 48 48" fill="none" xmlns="http://www.w3.org/2000/svg">
<g clip-path="url(#clip0_2_472)">
<path d="M33.4341 42.0151V38.0985C33.4341 36.0209 32.6088 34.0285 31.1398 32.5595C29.6708 31.0904 27.6783 30.2651 25.6008 30.2651H9.93413C7.8566 30.2651 5.86416 31.0904 4.39513 32.5595C2.92609 34.0285 2.1008 36.0209 2.1008 38.0985V42.0151" stroke="rgb(14 165 233)" stroke-width="1.95833" stroke-linecap="round" stroke-linejoin="round"/>
<path d="M17.7674 22.4318C22.0937 22.4318 25.6008 18.9247 25.6008 14.5985C25.6008 10.2722 22.0937 6.76514 17.7674 6.76514C13.4412 6.76514 9.93411 10.2722 9.93411 14.5985C9.93411 18.9247 13.4412 22.4318 17.7674 22.4318Z" stroke="rgb(14 165 233)" stroke-width="1.95833" stroke-linecap="round" stroke-linejoin="round"/>
<path d="M45.1841 42.0152V38.0985C45.1828 36.3629 44.6051 34.6769 43.5418 33.3051C42.4784 31.9334 40.9896 30.9537 39.3091 30.5198" stroke="rgb(14 165 233)" stroke-width="1.95833" stroke-linecap="round" stroke-linejoin="round"/>
<path d="M31.4758 7.01978C33.1608 7.4512 34.6542 8.43115 35.7208 9.80513C36.7873 11.1791 37.3662 12.869 37.3662 14.6083C37.3662 16.3477 36.7873 18.0375 35.7208 19.4115C34.6542 20.7855 33.1608 21.7654 31.4758 22.1969" stroke="rgb(14 165 233)" stroke-width="1.95833" stroke-linecap="round" stroke-linejoin="round"/>
</g>
<defs>
<clipPath id="clip0_2_472">
<rect width="47" height="47" fill="white" transform="translate(0.142456 0.890137)"/>
</clipPath>
</defs>
</svg>
